VIDEO INFO


Format                           : Matroska
Format version                   : Version 2
File size                        : 1.62 GiB
Duration                         : 1h 46mn
Overall bit rate                 : 2 183 Kbps
Encoded date                     : UTC 2011-09-20 15:23:36
Writing application              : mkvmerge v4.9.1 ('Ich will') gemaakt op Jul 11 2011 23:53:15
Writing library                  : libebml v1.2.1 + libmatroska v1.1.1

Video
ID                               : 1
Format                           : AVC
Format/Info                      : Advanced Video Codec
Format profile                   : High@L3.0
Format settings, CABAC           : Yes
Format settings, ReFrames        : 5 frames
Codec ID                         : V_MPEG4/ISO/AVC
Duration                         : 1h 46mn
Bit rate                         : 1 733 Kbps
Width                            : 720 pixels
Height                           : 480 pixels
Display aspect ratio             : 16:9
Original display aspect ratio    : 3:2
Frame rate                       : 23.976 fps
Standard                         : NTSC
Color space                      : YUV
Chroma subsampling               : 4:2:0
Bit depth                        : 8 bits
Scan type                        : Progressive
Bits/(Pixel*Frame)               : 0.209
Stream size                      : 1.25 GiB (77%)
Writing library                  : x264 core 67 r1145bm d2e1e1c
Encoding settings                : cabac=1 / ref=5 / deblock=1:0:0 / analyse=0x3:0x133 / me=umh / subme=7 / psy_rd=0.1:0.0 / mixed_ref=1 / me_range=16 / chroma_me=1 / trellis=1 / 8x8dct=1 / cqm=0 / deadzone=17,6 / chroma_qp_offset=-1 / threads=6 / thread_queue=6 / nr=0 / decimate=1 / mbaff=0 / bframes=5 / b_pyramid=1 / b_adapt=2 / b_bias=0 / direct=1 / wpredb=1 / keyint=250 / keyint_min=50 / scenecut=40 / rc=2pass / bitrate=1733 / ratetol=1.0 / qcomp=0.60 / qpmin=10 / qpmax=51 / qpstep=4 / cplxblur=20.0 / qblur=0.5 / ip_ratio=1.40 / pb_ratio=1.30 / aq=1:1.00

Audio
ID                               : 2
Format                           : AC-3
Format/Info                      : Audio Coding 3
Mode extension                   : CM (complete main)
Codec ID                         : A_AC3
Duration                         : 1h 46mn
Bit rate mode                    : Constant
Bit rate                         : 448 Kbps
Channel(s)                       : 6 channels
Channel positions                : Front: L C R, Side: L R, LFE
Sampling rate                    : 48.0 KHz
Bit depth                        : 16 bits
Compression mode                 : Lossy
Stream size                      : 340 MiB (21%)
Title                            : Original 5.1
Language                         : English

Text
ID                               : 3
Format                           : UTF-8
Codec ID                         : S_TEXT/UTF8
Codec ID/Info                    : UTF-8 Plain Text
Title                            : nl
Language                         : Dutch

-------------------------------------

Verenigde Staten
Avontuur / Familie
106 minuten

geregisseerd door Ken Olin
met Scott Bairstow, Charmaine Craig en Al Harrington

Jack gaat op reis en vraagt aan zijn beste vriend Henry om op zijn wolfhond White Fang te passen. Op een van hun wandelingen ontdekken Henry en White Fang dat het grondgebied van een nabijgelegen indianenstam wordt bedreigd door roekeloze goudzoekers. Samen proberen ze er alles aan te doen om de indianen te helpen en hun grond te redden.

-Ondertiteling (nederlands)in de film met de  mogelijkheid deze aan/uit te zetten.
